<mxfile host="app.diagrams.net" agent="Mozilla/5.0 (X11; Ubuntu; Linux x86_64; rv:143.0) Gecko/20100101 Firefox/143.0" version="28.2.5">
  <diagram name="Page-1" id="RFlXk5_lwtmVtxN5c9Km">
    <mxGraphModel grid="1" page="1" gridSize="10" guides="1" tooltips="1" connect="1" arrows="1" fold="1" pageScale="1" pageWidth="827" pageHeight="1169" background="light-dark(#FFFFFF,#006600)" math="0" shadow="0">
      <root>
        <mxCell id="0" />
        <mxCell id="1" parent="0" />
        <mxCell id="oJKO0fQNIB-Nz77ZnU0J-1" value="&lt;div&gt;Client&lt;/div&gt;" style="rounded=0;whiteSpace=wrap;html=1;" vertex="1" parent="1">
          <mxGeometry x="348" y="20" width="120" height="40" as="geometry" />
        </mxCell>
        <mxCell id="oJKO0fQNIB-Nz77ZnU0J-3" value="&lt;div&gt;&lt;br&gt;&lt;/div&gt;&lt;div&gt;FIREWALL&amp;nbsp;3&lt;/div&gt;&lt;div&gt;&lt;span style=&quot;white-space: pre;&quot;&gt;&#x9;&lt;/span&gt;&lt;span style=&quot;white-space: pre;&quot;&gt;&#x9;&lt;/span&gt;&lt;br&gt;&lt;/div&gt;" style="rounded=0;whiteSpace=wrap;html=1;" vertex="1" parent="1">
          <mxGeometry x="348" y="350" width="120" height="60" as="geometry" />
        </mxCell>
        <mxCell id="oJKO0fQNIB-Nz77ZnU0J-4" value="&lt;div&gt;LOAD BALANCER 1&lt;br&gt;HA PROXY&lt;/div&gt;&lt;div&gt;&lt;br&gt;&lt;/div&gt;" style="rounded=0;whiteSpace=wrap;html=1;" vertex="1" parent="1">
          <mxGeometry x="90" y="180" width="230" height="90" as="geometry" />
        </mxCell>
        <mxCell id="oJKO0fQNIB-Nz77ZnU0J-5" value="&lt;div&gt;&lt;br&gt;&lt;/div&gt;&lt;div&gt;FIREWALL 2&lt;/div&gt;&lt;div&gt;&lt;br&gt;&lt;/div&gt;" style="rounded=0;whiteSpace=wrap;html=1;" vertex="1" parent="1">
          <mxGeometry x="124" y="350" width="120" height="60" as="geometry" />
        </mxCell>
        <mxCell id="oJKO0fQNIB-Nz77ZnU0J-6" value="&lt;div&gt;FIREWALL&amp;nbsp;4&lt;/div&gt;" style="rounded=0;whiteSpace=wrap;html=1;" vertex="1" parent="1">
          <mxGeometry x="584" y="350" width="120" height="60" as="geometry" />
        </mxCell>
        <mxCell id="oJKO0fQNIB-Nz77ZnU0J-8" value="&lt;div&gt;&lt;br&gt;&lt;/div&gt;&lt;div&gt;&lt;br&gt;&lt;/div&gt;&lt;div&gt;Web server&lt;/div&gt;&lt;div&gt;1&lt;/div&gt;" style="strokeWidth=2;html=1;shape=mxgraph.flowchart.database;whiteSpace=wrap;" vertex="1" parent="1">
          <mxGeometry x="154" y="470" width="60" height="90" as="geometry" />
        </mxCell>
        <mxCell id="oJKO0fQNIB-Nz77ZnU0J-31" value="&lt;div&gt;&lt;br&gt;&lt;/div&gt;&lt;div&gt;App&lt;/div&gt;&lt;div&gt;server&lt;/div&gt;&lt;div&gt;1&lt;/div&gt;" style="strokeWidth=2;html=1;shape=mxgraph.flowchart.database;whiteSpace=wrap;" vertex="1" parent="1">
          <mxGeometry x="154" y="640" width="60" height="90" as="geometry" />
        </mxCell>
        <mxCell id="oJKO0fQNIB-Nz77ZnU0J-32" value="&lt;div&gt;&lt;br&gt;&lt;/div&gt;&lt;div&gt;My SQL&lt;/div&gt;&lt;div&gt;DB&lt;/div&gt;&lt;div&gt;Primary&lt;/div&gt;&lt;div&gt;&lt;br&gt;&lt;/div&gt;" style="strokeWidth=2;html=1;shape=mxgraph.flowchart.database;whiteSpace=wrap;" vertex="1" parent="1">
          <mxGeometry x="154" y="825" width="60" height="90" as="geometry" />
        </mxCell>
        <mxCell id="oJKO0fQNIB-Nz77ZnU0J-33" value="&lt;div&gt;&lt;br&gt;&lt;/div&gt;&lt;div&gt;Monitor&lt;/div&gt;&lt;div&gt;1&lt;/div&gt;&lt;div&gt;Sumologic&lt;/div&gt;" style="strokeWidth=2;html=1;shape=mxgraph.flowchart.database;whiteSpace=wrap;" vertex="1" parent="1">
          <mxGeometry x="148" y="1030" width="60" height="90" as="geometry" />
        </mxCell>
        <mxCell id="oJKO0fQNIB-Nz77ZnU0J-34" value="&lt;div&gt;&lt;br&gt;&lt;/div&gt;&lt;div&gt;&lt;br&gt;&lt;/div&gt;&lt;div&gt;Web server&lt;/div&gt;&lt;div&gt;&lt;span style=&quot;white-space: pre;&quot;&gt;&#x9;&lt;/span&gt;2&lt;span style=&quot;white-space: pre;&quot;&gt;&#x9;&lt;/span&gt;&lt;br&gt;&lt;/div&gt;" style="strokeWidth=2;html=1;shape=mxgraph.flowchart.database;whiteSpace=wrap;" vertex="1" parent="1">
          <mxGeometry x="378" y="470" width="60" height="90" as="geometry" />
        </mxCell>
        <mxCell id="oJKO0fQNIB-Nz77ZnU0J-35" value="&lt;div&gt;&lt;br&gt;&lt;/div&gt;&lt;div&gt;App&lt;/div&gt;&lt;div&gt;server&lt;/div&gt;&lt;div&gt;2&lt;/div&gt;" style="strokeWidth=2;html=1;shape=mxgraph.flowchart.database;whiteSpace=wrap;" vertex="1" parent="1">
          <mxGeometry x="378" y="640" width="60" height="90" as="geometry" />
        </mxCell>
        <mxCell id="oJKO0fQNIB-Nz77ZnU0J-36" value="&lt;div&gt;&lt;br&gt;&lt;/div&gt;&lt;div&gt;My SQL&lt;/div&gt;DB&lt;br&gt;&lt;div&gt;replica&lt;/div&gt;" style="strokeWidth=2;html=1;shape=mxgraph.flowchart.database;whiteSpace=wrap;" vertex="1" parent="1">
          <mxGeometry x="378" y="825" width="60" height="90" as="geometry" />
        </mxCell>
        <mxCell id="oJKO0fQNIB-Nz77ZnU0J-37" value="&lt;div&gt;&lt;br&gt;&lt;/div&gt;&lt;div&gt;Monitor&lt;/div&gt;&lt;div&gt;2&lt;/div&gt;&lt;div&gt;Sumologic&lt;/div&gt;" style="strokeWidth=2;html=1;shape=mxgraph.flowchart.database;whiteSpace=wrap;" vertex="1" parent="1">
          <mxGeometry x="378" y="1030" width="60" height="90" as="geometry" />
        </mxCell>
        <mxCell id="2UWyXipxFjF9N0KzThN4-12" value="" style="edgeStyle=orthogonalEdgeStyle;rounded=0;orthogonalLoop=1;jettySize=auto;html=1;" edge="1" parent="1" source="oJKO0fQNIB-Nz77ZnU0J-38" target="oJKO0fQNIB-Nz77ZnU0J-6">
          <mxGeometry relative="1" as="geometry" />
        </mxCell>
        <mxCell id="oJKO0fQNIB-Nz77ZnU0J-38" value="&lt;div&gt;&lt;br&gt;&lt;/div&gt;&lt;div&gt;&lt;br&gt;&lt;/div&gt;&lt;div&gt;Web server&lt;/div&gt;&lt;div&gt;3&lt;/div&gt;" style="strokeWidth=2;html=1;shape=mxgraph.flowchart.database;whiteSpace=wrap;" vertex="1" parent="1">
          <mxGeometry x="614" y="470" width="60" height="90" as="geometry" />
        </mxCell>
        <mxCell id="oJKO0fQNIB-Nz77ZnU0J-39" value="&lt;div&gt;&lt;br&gt;&lt;/div&gt;&lt;div&gt;App&lt;/div&gt;&lt;div&gt;server&lt;/div&gt;&lt;div&gt;3&lt;/div&gt;" style="strokeWidth=2;html=1;shape=mxgraph.flowchart.database;whiteSpace=wrap;" vertex="1" parent="1">
          <mxGeometry x="614" y="640" width="60" height="90" as="geometry" />
        </mxCell>
        <mxCell id="oJKO0fQNIB-Nz77ZnU0J-40" value="&lt;div&gt;My SQL&lt;/div&gt;DB&lt;br&gt;&lt;div&gt;replica&lt;/div&gt;" style="strokeWidth=2;html=1;shape=mxgraph.flowchart.database;whiteSpace=wrap;" vertex="1" parent="1">
          <mxGeometry x="614" y="825" width="60" height="90" as="geometry" />
        </mxCell>
        <mxCell id="oJKO0fQNIB-Nz77ZnU0J-41" value="&lt;div&gt;&lt;br&gt;&lt;/div&gt;&lt;div&gt;Monitor&lt;/div&gt;&lt;div&gt;3&lt;/div&gt;Sumologic" style="strokeWidth=2;html=1;shape=mxgraph.flowchart.database;whiteSpace=wrap;" vertex="1" parent="1">
          <mxGeometry x="608" y="1030" width="60" height="90" as="geometry" />
        </mxCell>
        <mxCell id="oJKO0fQNIB-Nz77ZnU0J-69" value="" style="endArrow=classic;startArrow=classic;html=1;rounded=0;exitX=0.5;exitY=0;exitDx=0;exitDy=0;strokeColor=light-dark(#000000,#000000);" edge="1" parent="1" source="oJKO0fQNIB-Nz77ZnU0J-3">
          <mxGeometry width="50" height="50" relative="1" as="geometry">
            <mxPoint x="407.5" y="360" as="sourcePoint" />
            <mxPoint x="408" y="240" as="targetPoint" />
          </mxGeometry>
        </mxCell>
        <mxCell id="oJKO0fQNIB-Nz77ZnU0J-70" value="" style="endArrow=classic;startArrow=classic;html=1;rounded=0;exitX=0.672;exitY=-0.03;exitDx=0;exitDy=0;exitPerimeter=0;strokeColor=light-dark(#000000,#000000);" edge="1" parent="1" source="oJKO0fQNIB-Nz77ZnU0J-4">
          <mxGeometry width="50" height="50" relative="1" as="geometry">
            <mxPoint x="407.91" y="190" as="sourcePoint" />
            <mxPoint x="350" y="133" as="targetPoint" />
          </mxGeometry>
        </mxCell>
        <mxCell id="oJKO0fQNIB-Nz77ZnU0J-71" value="" style="endArrow=classic;startArrow=classic;html=1;rounded=0;strokeColor=light-dark(#000000,#000000);" edge="1" parent="1" source="oJKO0fQNIB-Nz77ZnU0J-2">
          <mxGeometry width="50" height="50" relative="1" as="geometry">
            <mxPoint x="407.5" y="130" as="sourcePoint" />
            <mxPoint x="407.5" y="60" as="targetPoint" />
          </mxGeometry>
        </mxCell>
        <mxCell id="oJKO0fQNIB-Nz77ZnU0J-77" value="" style="endArrow=classic;html=1;rounded=0;entryX=1;entryY=0;entryDx=0;entryDy=0;strokeColor=light-dark(#000000,#000000);" edge="1" parent="1" target="oJKO0fQNIB-Nz77ZnU0J-5">
          <mxGeometry width="50" height="50" relative="1" as="geometry">
            <mxPoint x="410" y="320" as="sourcePoint" />
            <mxPoint x="160" y="320" as="targetPoint" />
          </mxGeometry>
        </mxCell>
        <mxCell id="oJKO0fQNIB-Nz77ZnU0J-79" value="" style="endArrow=classic;html=1;rounded=0;entryX=0;entryY=0;entryDx=0;entryDy=0;strokeColor=light-dark(#000000,#000000);" edge="1" parent="1" target="oJKO0fQNIB-Nz77ZnU0J-6">
          <mxGeometry width="50" height="50" relative="1" as="geometry">
            <mxPoint x="410" y="320" as="sourcePoint" />
            <mxPoint x="490" y="347" as="targetPoint" />
          </mxGeometry>
        </mxCell>
        <mxCell id="2UWyXipxFjF9N0KzThN4-4" value="" style="endArrow=classic;startArrow=classic;html=1;rounded=0;strokeColor=light-dark(#000000,#000000);strokeWidth=3;" edge="1" parent="1">
          <mxGeometry width="50" height="50" relative="1" as="geometry">
            <mxPoint x="183.91" y="470" as="sourcePoint" />
            <mxPoint x="183.41" y="410" as="targetPoint" />
          </mxGeometry>
        </mxCell>
        <mxCell id="2UWyXipxFjF9N0KzThN4-5" value="" style="endArrow=classic;startArrow=classic;html=1;rounded=0;strokeColor=light-dark(#000000,#000000);strokeWidth=3;" edge="1" parent="1">
          <mxGeometry width="50" height="50" relative="1" as="geometry">
            <mxPoint x="407.91" y="470" as="sourcePoint" />
            <mxPoint x="407.41" y="410" as="targetPoint" />
          </mxGeometry>
        </mxCell>
        <mxCell id="2UWyXipxFjF9N0KzThN4-6" value="" style="endArrow=classic;startArrow=classic;html=1;rounded=0;strokeColor=light-dark(#000000,#000000);strokeWidth=4;" edge="1" parent="1">
          <mxGeometry width="50" height="50" relative="1" as="geometry">
            <mxPoint x="643.91" y="470" as="sourcePoint" />
            <mxPoint x="643.41" y="410" as="targetPoint" />
          </mxGeometry>
        </mxCell>
        <mxCell id="2UWyXipxFjF9N0KzThN4-7" value="" style="endArrow=classic;startArrow=classic;html=1;rounded=0;" edge="1" parent="1" target="oJKO0fQNIB-Nz77ZnU0J-2">
          <mxGeometry width="50" height="50" relative="1" as="geometry">
            <mxPoint x="407.5" y="130" as="sourcePoint" />
            <mxPoint x="407.5" y="60" as="targetPoint" />
          </mxGeometry>
        </mxCell>
        <mxCell id="oJKO0fQNIB-Nz77ZnU0J-2" value="&lt;div&gt;Firewall 1&lt;/div&gt;" style="rounded=0;whiteSpace=wrap;html=1;" vertex="1" parent="1">
          <mxGeometry x="348" y="90" width="120" height="40" as="geometry" />
        </mxCell>
        <mxCell id="2UWyXipxFjF9N0KzThN4-8" value="&lt;div&gt;LOAD BALANCER 1&lt;br&gt;HA PROXY Cluster&lt;/div&gt;&lt;div&gt;&lt;br&gt;&lt;/div&gt;&lt;div&gt;&lt;br&gt;&lt;/div&gt;" style="rounded=0;whiteSpace=wrap;html=1;" vertex="1" parent="1">
          <mxGeometry x="500" y="180" width="230" height="90" as="geometry" />
        </mxCell>
        <mxCell id="2UWyXipxFjF9N0KzThN4-9" value="" style="endArrow=classic;startArrow=classic;html=1;rounded=0;entryX=0.312;entryY=-0.017;entryDx=0;entryDy=0;entryPerimeter=0;strokeColor=light-dark(#000000,#000000);exitX=1;exitY=1;exitDx=0;exitDy=0;" edge="1" parent="1" source="oJKO0fQNIB-Nz77ZnU0J-2" target="2UWyXipxFjF9N0KzThN4-8">
          <mxGeometry width="50" height="50" relative="1" as="geometry">
            <mxPoint x="470" y="130" as="sourcePoint" />
            <mxPoint x="562.4100000000001" y="160" as="targetPoint" />
          </mxGeometry>
        </mxCell>
        <mxCell id="2UWyXipxFjF9N0KzThN4-10" value="" style="endArrow=classic;startArrow=classic;html=1;rounded=0;exitX=0.984;exitY=0.65;exitDx=0;exitDy=0;exitPerimeter=0;entryX=0.005;entryY=0.637;entryDx=0;entryDy=0;entryPerimeter=0;strokeColor=light-dark(#000000,#000000);" edge="1" parent="1" source="oJKO0fQNIB-Nz77ZnU0J-4" target="2UWyXipxFjF9N0KzThN4-8">
          <mxGeometry width="50" height="50" relative="1" as="geometry">
            <mxPoint x="333.5699999999999" y="244.89999999999986" as="sourcePoint" />
            <mxPoint x="482.42" y="240" as="targetPoint" />
          </mxGeometry>
        </mxCell>
        <mxCell id="2UWyXipxFjF9N0KzThN4-14" value="Horizontal Container" style="swimlane;horizontal=0;whiteSpace=wrap;html=1;" vertex="1" parent="1">
          <mxGeometry x="100" y="470" width="650" height="90" as="geometry" />
        </mxCell>
        <mxCell id="2UWyXipxFjF9N0KzThN4-16" value="Horizontal Container" style="swimlane;horizontal=0;whiteSpace=wrap;html=1;" vertex="1" parent="1">
          <mxGeometry x="100" y="630" width="650" height="100" as="geometry" />
        </mxCell>
        <mxCell id="2UWyXipxFjF9N0KzThN4-20" value="Horizontal Container" style="swimlane;horizontal=0;whiteSpace=wrap;html=1;" vertex="1" parent="1">
          <mxGeometry x="100" y="820" width="650" height="100" as="geometry" />
        </mxCell>
        <mxCell id="2UWyXipxFjF9N0KzThN4-21" value="" style="endArrow=classic;startArrow=classic;html=1;rounded=0;" edge="1" parent="1">
          <mxGeometry width="50" height="50" relative="1" as="geometry">
            <mxPoint x="407" y="820" as="sourcePoint" />
            <mxPoint x="407.41" y="730" as="targetPoint" />
          </mxGeometry>
        </mxCell>
        <mxCell id="2UWyXipxFjF9N0KzThN4-22" value="" style="endArrow=classic;startArrow=classic;html=1;rounded=0;" edge="1" parent="1">
          <mxGeometry width="50" height="50" relative="1" as="geometry">
            <mxPoint x="408" y="630" as="sourcePoint" />
            <mxPoint x="407.82000000000005" y="560" as="targetPoint" />
          </mxGeometry>
        </mxCell>
        <mxCell id="2UWyXipxFjF9N0KzThN4-23" value="" style="endArrow=classic;startArrow=classic;html=1;rounded=0;exitX=0.5;exitY=0;exitDx=0;exitDy=0;exitPerimeter=0;" edge="1" parent="1" source="oJKO0fQNIB-Nz77ZnU0J-37">
          <mxGeometry width="50" height="50" relative="1" as="geometry">
            <mxPoint x="407.41" y="1010" as="sourcePoint" />
            <mxPoint x="407.82000000000005" y="920" as="targetPoint" />
          </mxGeometry>
        </mxCell>
        <mxCell id="2UWyXipxFjF9N0KzThN4-24" value="" style="endArrow=classic;startArrow=classic;html=1;rounded=0;exitX=0.375;exitY=-0.037;exitDx=0;exitDy=0;exitPerimeter=0;" edge="1" parent="1" source="oJKO0fQNIB-Nz77ZnU0J-41">
          <mxGeometry width="50" height="50" relative="1" as="geometry">
            <mxPoint x="520" y="1090" as="sourcePoint" />
            <mxPoint x="410" y="920" as="targetPoint" />
          </mxGeometry>
        </mxCell>
        <mxCell id="2UWyXipxFjF9N0KzThN4-25" value="" style="endArrow=classic;startArrow=classic;html=1;rounded=0;exitX=0.5;exitY=0;exitDx=0;exitDy=0;exitPerimeter=0;" edge="1" parent="1" source="oJKO0fQNIB-Nz77ZnU0J-33">
          <mxGeometry width="50" height="50" relative="1" as="geometry">
            <mxPoint x="340" y="1040" as="sourcePoint" />
            <mxPoint x="400" y="920" as="targetPoint" />
          </mxGeometry>
        </mxCell>
      </root>
    </mxGraphModel>
  </diagram>
</mxfile>
